<svg width="294" height="188" viewBox="0 0 294 188" fill="none" xmlns="http://www.w3.org/2000/svg">
<path d="M268 10.3267C268 4.62285 263.64 0 258.26 0H41.7397C36.36 0 32 4.62285 32 10.3267V162H268V10.3267ZM259.048 152.508H40.9525L40.9525 81L40.9525 10.3267C37.5 5 41.3039 9.49517 41.7368 9.49517H258.26C258.693 9.49517 259.045 9.86784 259.045 10.3267L259.048 152.508Z" fill="black"/>
<path d="M282.848 178H11.1524H0C0 183.515 7.51333 188 16.7515 188H277.249C286.487 188 294 183.513 294 178H282.848Z" fill="black"/>
</svg>
