<svg width="294" height="190" viewBox="0 0 294 190" fill="none" xmlns="http://www.w3.org/2000/svg">
<path d="M260.91 10.8267C260.91 5.12285 256.697 0.5 251.5 0.5L39.9095 0.17334C34.7123 0.17334 30.5 4.79619 30.5 10.5001V163H260.91V10.8267ZM256 157.5H36V5.50022C36 5.50022 41.0818 5.50022 41.5 5.50022L250 5.25428C250.418 5.25428 256 5.25428 256 5.25428L256 81.8513V157.5Z" fill="black"/>
<path d="M282.848 180H11.1524H0C0 185.515 7.51333 190 16.7515 190H277.249C286.487 190 294 185.513 294 180H282.848Z" fill="black"/>
<g clip-path="url(#clip0_601_3)">
<mask id="mask0_601_3" style="mask-type:luminance" maskUnits="userSpaceOnUse" x="42" y="16" width="209" height="137">
<path d="M251 16H42V153H251V16Z" fill="white"/>
</mask>
<g mask="url(#mask0_601_3)">
<path fill-rule="evenodd" clip-rule="evenodd" d="M210.974 104.276C232.838 104.276 250.565 115.125 250.565 128.505C250.565 141.885 232.838 152.734 210.974 152.734C189.111 152.734 171.385 141.885 171.385 128.505C171.385 115.125 189.111 104.276 210.974 104.276ZM56.6603 16.2778H229.536C233.473 16.2778 236.993 17.2661 239.569 18.8317C242.145 20.4085 243.742 22.596 243.742 24.9722V102.711C239.279 100.59 234.235 98.8909 228.774 97.7361V27.0819C228.774 26.6044 228.483 26.2047 227.939 25.9161C227.467 25.6273 226.742 25.4053 226.034 25.4053H60.0351C59.2549 25.4053 58.6017 25.5829 58.13 25.9161C57.6582 26.2047 57.2953 26.6378 57.2953 27.0819V104.831H57.3498L115.356 70.8424C117.679 69.5322 121.325 69.6765 123.412 71.0978C123.466 71.1311 123.466 71.1755 123.539 71.1755L172.31 106.486C163.727 112.238 158.484 119.899 158.484 128.305C158.484 131.958 159.482 135.468 161.297 138.743H56.6603C52.7231 138.743 49.2032 137.754 46.6267 136.189C44.0503 134.624 42.4536 132.425 42.4536 130.048V24.9722C42.4536 22.5626 44.0684 20.4085 46.6267 18.8317C49.185 17.255 52.7775 16.2778 56.6603 16.2778ZM176.229 104.11L182.961 78.8039C183.505 76.9052 186.425 75.5838 189.528 75.9169C190.726 76.028 191.796 76.3944 192.631 76.8719L223.657 96.8256C219.701 96.2481 215.601 95.9483 211.356 95.9483C197.875 95.9373 185.573 99.0242 176.229 104.11ZM190.744 36.1982C196.423 36.1982 201.612 37.6196 205.314 39.8847C209.069 42.1833 211.338 45.3257 211.338 48.8011C211.338 52.2767 209.015 55.4524 205.314 57.7176C201.558 60.0161 196.423 61.4041 190.744 61.4041C185.065 61.4041 179.876 59.9828 176.174 57.7176C172.419 55.4191 170.15 52.2767 170.15 48.8011C170.15 45.3257 172.473 42.15 176.174 39.8847C179.93 37.5863 185.083 36.1982 190.744 36.1982ZM197.711 113.77L233.926 137.754C236.793 135.1 238.463 131.925 238.463 128.505C238.463 119.222 226.161 111.694 210.993 111.694C206.167 111.683 201.648 112.438 197.711 113.77ZM224.238 143.229L188.022 119.244C185.155 121.899 183.487 125.074 183.487 128.494C183.487 137.777 195.788 145.305 210.956 145.305C215.783 145.316 220.3 144.561 224.238 143.229Z" fill="black" stroke="black" stroke-width="0.5" stroke-miterlimit="2.6131"/>
</g>
</g>
<defs>
<clipPath id="clip0_601_3">
<rect width="209" height="137" fill="white" transform="translate(42 16)"/>
</clipPath>
</defs>
</svg>
