<svg width="117" height="30" viewBox="0 0 117 30" fill="none" xmlns="http://www.w3.org/2000/svg">
<g clip-path="url(#clip0_511_6)">
<path d="M36.9922 8.07373C34.5826 8.07373 32.9841 9.0779 32.1235 10.9532L32.0622 8.36311H28.3312V29.115H32.4473V21.2987C33.3545 22.8209 34.8598 23.6601 36.9922 23.6601C41.0616 23.6601 43.6724 20.5666 43.6724 15.8438C43.6724 11.1528 41.0616 8.07373 36.9922 8.07373ZM36.0237 20.0486C33.795 20.0486 32.3073 18.3122 32.3073 15.8438C32.3073 13.3753 33.7834 11.7316 36.0237 11.7316C38.2641 11.7316 39.5243 13.3145 39.5243 15.8438C39.5243 18.373 38.2495 20.0486 36.0237 20.0486Z" fill="#3770C2"/>
<path d="M52.7182 8.07373C47.8174 8.07373 44.9615 11.3033 44.9615 15.8582C44.9615 20.4132 47.832 23.6601 52.7182 23.6601C57.6044 23.6601 60.4603 20.4161 60.4603 15.8582C60.4603 11.3004 57.619 8.07373 52.7182 8.07373ZM52.7182 20.0341C50.4749 20.0341 49.0338 18.4193 49.0338 15.8582C49.0338 13.2972 50.4925 11.7142 52.7182 11.7142C54.944 11.7142 56.3733 13.3001 56.3733 15.8582C56.3733 18.4164 54.9615 20.0341 52.7182 20.0341Z" fill="#3770C2"/>
<path d="M65.8572 2.39014H61.7411V23.6601H65.8572V2.39014Z" fill="#3770C2"/>
<path d="M71.3178 2.39014H67.2018V23.6601H71.3178V2.39014Z" fill="#3770C2"/>
<path d="M80.3785 8.07373C75.4777 8.07373 72.6219 11.3033 72.6219 15.8582C72.6219 20.4132 75.4923 23.6601 80.3785 23.6601C85.2647 23.6601 88.1177 20.4161 88.1177 15.8582C88.1177 11.3004 85.2764 8.07373 80.3785 8.07373ZM80.3785 20.0341C78.1353 20.0341 76.6913 18.4193 76.6913 15.8582C76.6913 13.2972 78.1498 11.7142 80.3785 11.7142C82.6072 11.7142 84.0337 13.3001 84.0337 15.8582C84.0337 18.4164 82.6218 20.0341 80.3785 20.0341Z" fill="#3770C2"/>
<path d="M91.5105 19.2124C90.3028 19.2124 89.2614 20.205 89.2614 21.4291C89.2614 22.6532 90.2999 23.6574 91.5105 23.6574C92.7211 23.6574 93.7596 22.6532 93.7596 21.4291C93.7596 20.205 92.7211 19.2124 91.5105 19.2124Z" fill="#3770C2"/>
<path d="M97.4213 2.25488C96.0707 2.25488 94.9009 3.33719 94.9009 4.67704C94.9009 6.0169 96.0357 7.11368 97.4213 7.11368C98.807 7.11368 99.9709 6.0169 99.9709 4.67704C99.9709 3.33719 98.7719 2.25488 97.4213 2.25488Z" fill="#3770C2"/>
<path d="M99.4951 8.65283H95.379V23.6604H99.4951V8.65283Z" fill="#3770C2"/>
<path d="M108.722 8.07373C103.821 8.07373 100.965 11.3033 100.965 15.8582C100.965 20.4132 103.835 23.6601 108.722 23.6601C113.608 23.6601 116.461 20.4161 116.461 15.8582C116.461 11.3004 113.619 8.07373 108.722 8.07373ZM108.722 20.0341C106.481 20.0341 105.034 18.4193 105.034 15.8582C105.034 13.2972 106.493 11.7142 108.722 11.7142C110.95 11.7142 112.377 13.3001 112.377 15.8582C112.377 18.4164 110.965 20.0341 108.722 20.0341Z" fill="#3770C2"/>
<path d="M23.051 3.56787H19.0049L21.1053 7.13311L23.051 3.56787Z" fill="#3770C2"/>
<path d="M14.3144 0L0 23.6515H7.66622C8.69013 23.6515 9.69654 23.394 10.5834 22.9107C11.5431 22.3869 12.2695 21.6258 12.8354 20.7027C13.4976 19.6233 14.1423 18.5323 14.7928 17.4471L16.4614 14.669L14.3085 11.0922L13.3546 12.6143C12.2665 14.4172 11.2368 16.2635 10.1108 18.0432C9.54485 18.9345 8.8039 19.7796 7.71289 19.9966C7.54953 20.0284 7.38034 20.0458 7.21115 20.0516C6.98653 20.0603 6.76191 20.0545 6.53729 20.0545L14.3144 6.92791L24.2939 23.7036H27.1818V21.2381L27.1147 21.1281L14.3144 0Z" fill="#3770C2"/>
</g>
<defs>
<clipPath id="clip0_511_6">
<rect width="117" height="30" fill="white"/>
</clipPath>
</defs>
</svg>
