<svg width="16" height="16" viewBox="0 0 18 18" fill="none" xmlns="http://www.w3.org/2000/svg">
<path d="M17.2125 2.3625C17.6474 1.92757 17.6474 1.22242 17.2125 0.7875C16.7776 0.352576 16.0724 0.352576 15.6375 0.7875L9 7.425L2.3625 0.787499C1.92757 0.352575 1.22242 0.352576 0.7875 0.7875C0.352576 1.22242 0.352576 1.92758 0.7875 2.3625L7.425 9L0.787499 15.6375C0.352575 16.0724 0.352576 16.7776 0.7875 17.2125C1.22242 17.6474 1.92758 17.6474 2.3625 17.2125L9 10.575L15.6375 17.2125C16.0724 17.6474 16.7776 17.6474 17.2125 17.2125C17.6474 16.7776 17.6474 16.0724 17.2125 15.6375L10.575 9L17.2125 2.3625Z" fill="white"/>
</svg>
