<svg width="28" height="41" viewBox="0 0 28 41" fill="none" xmlns="http://www.w3.org/2000/svg">
<path d="M17.6122 0L21.9278 2.72095L4.93231 13.4364L0.616699 10.7154L17.6122 0Z" fill="#3770C2"/>
<path d="M22.1019 3.29224L5.21347 13.9354L5.21289 19.3203L22.1014 8.67716L22.1019 3.29224Z" fill="#3770C2"/>
<path d="M15.3104 13.8013L5.24883 20.1422L5.24829 25.5273L15.3098 19.1863L15.3104 13.8013Z" fill="#3770C2"/>
<path d="M11.4536 22.3142L5.22519 26.2395L5.22461 31.6247L11.453 27.6994L11.4536 22.3142Z" fill="#3770C2"/>
<path d="M0.310023 11.2346L4.65102 13.9702L4.64935 19.3564L0.30835 16.6208L0.310023 11.2346Z" fill="#3770C2"/>
<path d="M0.351283 17.4043L4.63962 20.1067L4.63795 25.4929L0.349609 22.7905L0.351283 17.4043Z" fill="#3770C2"/>
<path d="M0.34944 23.5366L4.63923 26.24L4.63744 31.9815L0.347656 29.2781L0.34944 23.5366Z" fill="#3770C2"/>
<path d="M9.90865 41.0001L5.59302 38.2792L22.3956 27.6853L26.7112 30.4062L9.90865 41.0001Z" fill="#3770C2"/>
<path d="M5.25098 37.8134L22.1141 27.1862L22.1146 21.8013L5.25151 32.4285L5.25098 37.8134Z" fill="#3770C2"/>
<path d="M12.0168 27.3205L22.0784 20.9795L22.079 15.5945L12.0174 21.9354L12.0168 27.3205Z" fill="#3770C2"/>
<path d="M15.874 18.8072L22.1024 14.8819L22.1029 9.49683L15.8746 13.4221L15.874 18.8072Z" fill="#3770C2"/>
<path d="M27.018 29.9231L22.677 27.1875L22.6786 21.8013L27.0197 24.5368L27.018 29.9231Z" fill="#3770C2"/>
<path d="M26.9768 23.7187L22.6885 21.0163L22.6901 15.6301L26.9785 18.3325L26.9768 23.7187Z" fill="#3770C2"/>
<path d="M26.9785 17.5865L22.6887 14.8832L22.6905 9.24487L26.9803 11.9482L26.9785 17.5865Z" fill="#3770C2"/>
</svg>
