<svg width="325" height="162" viewBox="0 0 325 162" fill="none" xmlns="http://www.w3.org/2000/svg">
<g clip-path="url(#clip0_507_336)">
<path fill-rule="evenodd" clip-rule="evenodd" d="M262.759 104.385C296.758 104.385 324.323 117.213 324.323 133.035C324.323 148.857 296.758 161.685 262.759 161.685C228.761 161.685 201.196 148.857 201.196 133.035C201.196 117.213 228.761 104.385 262.759 104.385ZM22.7971 0.328369H291.623C297.745 0.328369 303.219 1.49695 307.225 3.34831C311.231 5.21279 313.714 7.79943 313.714 10.6093V102.534C306.774 100.026 298.93 98.0168 290.438 96.6513V13.104C290.438 12.5394 289.986 12.0667 289.14 11.7254C288.406 11.384 287.278 11.1214 286.177 11.1214H28.045C26.8318 11.1214 25.816 11.3315 25.0825 11.7254C24.3489 12.0667 23.7846 12.5788 23.7846 13.104V105.041H23.8693L114.07 64.85C117.682 63.3007 123.353 63.4713 126.597 65.152C126.682 65.1914 126.682 65.2439 126.795 65.2439L202.635 106.998C189.289 113.799 181.136 122.859 181.136 132.799C181.136 137.118 182.687 141.268 185.509 145.141H22.7971C16.6746 145.141 11.2011 143.972 7.19463 142.121C3.18821 140.27 0.705353 137.67 0.705353 134.86V10.6093C0.705353 7.76004 3.21642 5.21279 7.19463 3.34831C11.1728 1.48382 16.7593 0.328369 22.7971 0.328369ZM208.729 104.188L219.197 74.2643C220.043 72.0191 224.585 70.4566 229.41 70.8505C231.272 70.9818 232.937 71.4151 234.235 71.9797L282.481 95.5746C276.33 94.8918 269.954 94.5373 263.352 94.5373C242.389 94.5242 223.259 98.1744 208.729 104.188ZM231.3 23.8839C240.132 23.8839 248.201 25.5646 253.957 28.2431C259.797 30.9611 263.324 34.6769 263.324 38.7866C263.324 42.8964 259.712 46.6516 253.957 49.3302C248.116 52.0481 240.132 53.6894 231.3 53.6894C222.469 53.6894 214.4 52.0087 208.644 49.3302C202.804 46.6122 199.277 42.8964 199.277 38.7866C199.277 34.6769 202.889 30.9217 208.644 28.2431C214.485 25.5252 222.498 23.8839 231.3 23.8839ZM242.135 115.611L298.45 143.972C302.908 140.834 305.504 137.079 305.504 133.035C305.504 122.058 286.375 113.156 262.788 113.156C255.283 113.143 248.257 114.036 242.135 115.611ZM283.384 150.446L227.068 122.084C222.61 125.223 220.015 128.978 220.015 133.022C220.015 143.999 239.144 152.901 262.731 152.901C270.236 152.914 277.261 152.021 283.384 150.446Z" fill="black" stroke="black" stroke-width="0.5" stroke-miterlimit="2.6131"/>
</g>
<defs>
<clipPath id="clip0_507_336">
<rect width="325" height="162" fill="white"/>
</clipPath>
</defs>
</svg>
