<svg width="196" height="199" viewBox="0 0 196 199" fill="none" xmlns="http://www.w3.org/2000/svg">
<g clip-path="url(#clip0_508_2)">
<path d="M98 0C44.2388 0 0 44.916 0 99.5C0 154.084 44.2388 199 98 199C151.761 199 196 154.084 196 99.5C196 44.916 151.761 0 98 0ZM98 20.5468C140.924 20.5468 175.763 55.919 175.763 99.5C175.763 143.081 140.924 178.453 98 178.453C55.076 178.453 20.237 143.081 20.237 99.5C20.237 92.1619 21.217 85.0642 23.0708 78.3231C26.6428 83.6058 31.4278 87.9262 37.0126 90.9108C42.5973 93.8955 48.8138 95.4546 55.125 95.4537C65.4379 95.4493 75.3271 91.2879 82.6194 83.884C89.9117 76.48 94.0103 66.4395 94.0147 55.9688C94.0161 49.56 92.4798 43.2473 89.5386 37.5768C86.5973 31.9063 82.3398 27.0486 77.1342 23.424C83.9289 21.5092 90.9484 20.5413 98 20.5468Z" fill="#3770C2"/>
</g>
<defs>
<clipPath id="clip0_508_2">
<rect width="196" height="199" fill="white"/>
</clipPath>
</defs>
</svg>
