<?xml version="1.0" standalone="no"?>
<!DOCTYPE svg PUBLIC "-//W3C//DTD SVG 20010904//EN"
 "http://www.w3.org/TR/2001/REC-SVG-20010904/DTD/svg10.dtd">
<svg version="1.0" xmlns="http://www.w3.org/2000/svg"
 width="64.000000pt" height="64.000000pt" viewBox="0 0 64.000000 64.000000"
 preserveAspectRatio="xMidYMid meet">

<g transform="translate(0.000000,64.000000) scale(0.100000,-0.100000)"
fill="#ffffff" stroke="none">
<path d="M478 476 c-14 -33 -5 -54 28 -62 46 -12 76 54 35 76 -31 16 -51 12
-63 -14z m64 -3 c4 -2 2 -15 -4 -28 -9 -21 -14 -23 -32 -13 -29 15 -29 14 -17
37 10 19 24 20 53 4z"/>
<path d="M51 407 c-18 -22 -41 -85 -40 -109 0 -14 9 2 22 37 17 46 27 61 45
63 26 4 28 -12 8 -78 -14 -46 -7 -87 17 -102 7 -4 102 -8 211 -8 197 0 199 0
181 20 -28 31 -31 100 -5 133 24 31 39 33 79 13 36 -19 51 -55 51 -126 0 -100
1 -100 -257 -100 -120 0 -235 5 -255 10 -23 7 -49 25 -68 48 -34 41 -42 30 -8
-13 39 -50 66 -55 323 -55 282 0 275 -3 275 110 0 38 -5 81 -12 95 -21 47 -94
70 -132 42 -26 -19 -37 -83 -22 -129 l14 -38 -172 0 c-224 0 -240 9 -199 122
14 39 14 49 4 62 -16 19 -45 21 -60 3z"/>
<path d="M527 323 c-13 -12 -7 -40 13 -58 16 -15 20 -15 25 -3 7 17 -11 68
-23 68 -5 0 -12 -3 -15 -7z m20 -35 c-3 -8 -6 -5 -6 6 -1 11 2 17 5 13 3 -3 4
-12 1 -19z"/>
</g>
</svg>
