<svg width="800" height="800" viewBox="0 0 800 800" fill="none" xmlns="http://www.w3.org/2000/svg">
<g clip-path="url(#clip0_401_2)">
<path fill-rule="evenodd" clip-rule="evenodd" d="M534.117 150.114C595.097 145.887 642.233 181.506 673.587 222.579C705.2 263.992 726.98 318.112 738.91 371.313C750.837 424.49 754.027 481.68 744.13 530.41C734.627 577.203 709.283 630.743 651.893 647.9C597.917 664.037 550.597 640.557 516.84 612.16C482.98 583.677 454.307 543.74 431.767 506.283C420.84 488.127 410.907 469.793 402.123 452.433C393.337 469.793 383.403 488.127 372.477 506.283C349.937 543.74 321.264 583.677 287.403 612.16C253.647 640.557 206.327 664.037 152.349 647.9C94.9614 630.743 69.6161 577.203 60.1137 530.41C50.2184 481.68 53.4057 424.49 65.3317 371.313C77.2631 318.112 99.0447 263.992 130.657 222.579C162.01 181.506 209.146 145.887 270.128 150.114C327.332 154.079 368.916 192.883 394.822 225.729L402.123 235.363L409.424 225.729C435.327 192.883 476.911 154.079 534.117 150.114ZM263.212 249.874C249.195 248.903 230.897 256.07 210.145 283.255C189.654 310.1 172.66 349.71 162.908 393.197C153.151 436.703 151.747 479.157 158.114 510.51C163.607 537.561 172.408 547.245 177.846 550.623L180.092 551.775L180.991 552.09C188.747 554.407 201.461 553.78 223.03 535.637C244.494 517.58 266.439 488.547 286.797 454.72C295.877 439.634 304.287 424.174 311.855 409.303L320.521 391.802L328.312 375.238L335.161 359.98L341.002 346.398L345.767 334.863C340.55 324.438 333.073 310.945 323.677 297.575C302.204 267.017 280.691 251.086 263.212 249.874ZM541.03 249.874C523.553 251.086 502.04 267.017 480.567 297.575C471.17 310.945 463.693 324.438 458.477 334.863L466.032 352.956L472.385 367.422C473.527 369.968 474.71 372.576 475.932 375.238L483.723 391.802L492.389 409.303C499.957 424.174 508.368 439.634 517.447 454.72C537.803 488.547 559.75 517.58 581.213 535.637C601.243 552.484 613.635 554.228 621.514 552.536L623.253 552.09C627.597 550.79 639.37 543.803 646.13 510.51C652.497 479.157 651.093 436.703 641.337 393.197C631.583 349.71 614.59 310.1 594.097 283.255C573.347 256.07 555.05 248.903 541.03 249.874Z" fill="#3770C2"/>
</g>
<defs>
<clipPath id="clip0_401_2">
<rect width="800" height="800" fill="white"/>
</clipPath>
</defs>
</svg>
