<svg width="800" height="800" viewBox="0 0 800 800" fill="none" xmlns="http://www.w3.org/2000/svg">
<path d="M572.65 317.325C530.6 131.9 431.25 71.0999 420.575 47.7999C408.85 31.2749 396.225 0.0249023 396.225 0.0249023C396.1 0.674902 396.1 1.0749 395.975 1.7249V2.1249C395.975 2.6499 395.85 2.8999 395.85 3.4249V3.9499H395.725C395.725 4.1999 395.725 4.4749 395.725 4.7249V5.6249H395.6C395.6 5.8749 395.6 6.2749 395.475 6.3999V7.1749C395.475 7.4249 395.475 7.6999 395.35 7.8249V8.4749C395.35 8.8749 395.35 9.2499 395.225 9.5249V9.6499C395.225 10.1749 395.1 10.8249 394.975 11.3499V11.5999C394.85 11.7249 394.85 11.8499 394.85 11.9999V12.5249H394.725V13.2999H394.6V13.8249H394.35V14.5999H394.225V15.2499H394.1V15.7749H393.975V16.2999H393.85V16.8249H393.725V17.3499H393.6V17.7499H393.475V18.2749H393.35V18.3999V18.7999H393.225C393.1 18.7999 393.1 18.9249 393.1 18.9249V19.1749L392.975 19.4249C392.975 19.6749 392.85 19.9499 392.725 20.1999C392.6 20.3249 392.6 20.3249 392.6 20.4499V20.6999H392.475V20.9499H392.225V21.5999H391.975V21.9999H391.85V22.1249H391.725V22.3749H391.6V22.7749H391.475V23.0249H391.225V23.4249H391.1V23.6749H390.975V23.9249H390.85V24.3249H390.725V24.5749H390.6V24.6999H390.475V24.9499H390.225V25.3499H390.1V25.4749H389.975V25.7249H389.85V26.1249H389.725V26.2499H389.6V26.4999H389.475V26.6249H389.35V27.0249H389.1V27.1499H388.975V27.3999H388.85V27.5249H388.725V27.7749H388.6C388.6 27.8999 388.6 27.8999 388.6 27.8999V28.0249C388.475 28.0249 388.475 28.1499 388.475 28.1499V28.2749H388.35C388.225 28.5249 388.1 28.6749 387.95 28.9249C387.95 28.9249 387.7 29.1749 387.7 29.3249C387.575 29.3249 387.575 29.4499 387.575 29.4499V29.5749H387.45V29.6999H387.325C387.325 29.6999 387.325 29.6999 387.325 29.8249V29.9499H387.075V30.0749H386.95V30.1999H386.825V30.3249V30.5749H386.7V30.6999H386.575V30.8249H386.45V31.0749H386.325V30.8249H386.075V30.9499H385.95V31.1999H385.825V31.4499H385.7V31.5749H385.575V31.6999H385.45V31.8249H385.325V32.0749H385.075V32.1999H384.95V32.4499H384.825V32.5749H384.7V32.6999H384.575V33.0999H384.45V33.2249H384.325V33.3499H384.2V33.4749H384.075V33.5999H383.825V33.8499H383.7V33.9749H383.575V34.0999H383.45V34.3499H383.325V34.4749H383.075V34.5999H382.95V34.7249H382.825V34.9749H382.7V35.2249H382.575V35.3499H382.45V35.4749H382.2V35.5999H382.075V35.7249H381.95V35.9749H381.825V36.0999H381.7V36.3499H381.575V36.4749H381.45V36.5999H381.325V36.7249H381.2V36.8499H380.95V36.9749C380.825 36.9749 380.825 37.0999 380.825 37.0999L380.7 37.2249L380.575 37.3499V37.5999H380.45V37.7249H380.325V37.8499H380.2V37.9749H380.075L379.825 38.2249V38.3499C379.575 38.4749 379.575 38.5999 379.3 38.8749C379.3 38.8749 379.05 39.1249 378.9 39.1249C378.5 39.3749 378 39.8999 377.6 40.2999C377.35 40.4249 377.075 40.6999 376.825 40.8249C376.3 41.3499 375.775 41.7249 375.25 42.1249C374.475 42.8999 373.675 43.4249 372.775 44.1999H372.65C370.825 45.7749 368.75 47.5749 366.525 49.5499H366.4C360.8 54.4999 354.15 60.8749 346.6 68.4249L345.95 69.0749C300.625 115.95 229.15 213.725 221.725 371.675C220.95 384.7 221.075 397.45 221.85 409.825V410.075C225.5 472.325 245.025 525.45 269.5 568.675C279.125 585.875 289.675 601.5 300.35 615.55C337.075 664 374.575 692.775 384.075 699.8C398.8 733.775 397.475 792.375 397.475 792.375L418.95 799.525C418.95 799.525 414.525 742.875 420.65 715.4C422.6 706.925 427.025 699.65 432.25 693.4C435.9 690.925 446.325 683.375 458.825 671.925C459.475 671.275 459.875 670.75 460.4 670.1C511.05 622.825 605.725 506.425 573.3 316.85L572.65 317.325Z" fill="#156A00"/>
</svg>
