<svg width="436" height="382" viewBox="0 0 436 382" fill="none" xmlns="http://www.w3.org/2000/svg">
<path fill-rule="evenodd" clip-rule="evenodd" d="M181.36 100.178C179.721 102.751 177.529 106.189 176.487 107.818C175.445 109.446 173.695 112.196 172.595 113.929C171.495 115.663 170.011 117.983 169.297 119.086L167.998 121.092H165.87C164.699 121.092 163.742 121.222 163.742 121.38C163.742 122.066 189.945 147.447 190.3 147.107C190.508 146.908 192.218 145.962 194.099 145.004C217.389 133.145 246.63 140.555 261.331 162.043C262.438 163.662 263.344 165.152 263.344 165.354C263.344 165.556 263.484 165.778 263.654 165.849C264.09 166.028 266.17 170.432 267.331 173.631C271.113 184.058 271.113 197.936 267.331 208.362C266.363 211.031 264.17 215.841 263.754 216.208C263.634 216.313 263.285 216.88 262.977 217.469L262.417 218.539L240.112 196.651C227.844 184.613 240.914 197.582 269.156 225.471L320.507 276.181H329.712H338.917V198.445V120.71H303.462H268.005L267.094 119.277C266.593 118.49 265.309 116.47 264.24 114.789C259.471 107.283 257.494 104.182 254.797 99.9867L251.913 95.4983H218.125H184.338L181.36 100.178ZM97.0827 198.382V275.674L192.28 275.939C244.639 276.086 287.577 276.107 287.699 275.986C287.821 275.866 272.145 260.261 252.865 241.308C233.584 222.356 224.138 213.133 231.875 220.813L245.943 234.777L244.858 235.328C244.261 235.632 243.685 235.973 243.579 236.089C241.18 238.684 228.249 242.107 219.575 242.443C210.234 242.806 203.632 241.453 195.031 237.413C181.069 230.856 170.071 217.267 166.892 202.647C166.664 201.597 166.298 199.93 166.078 198.945C164.185 190.429 166.609 176.35 171.602 166.869L173.598 163.079L152.288 142.085L130.979 121.092H114.03H97.0827V198.382ZM0" fill="#424F67"/>
<path fill-rule="evenodd" clip-rule="evenodd" d="M196.975 0.26262C195.11 0.344749 193.584 0.57681 193.584 0.779266C193.584 0.980768 192.374 1.14598 190.894 1.14598C189.415 1.14598 188.096 1.31788 187.964 1.52797C187.833 1.73807 186.786 1.90997 185.639 1.90997C184.492 1.90997 183.446 2.08186 183.314 2.29196C183.182 2.50206 182.212 2.67395 181.159 2.67395C180.106 2.67395 179.244 2.84585 179.244 3.05595C179.244 3.26604 178.47 3.43794 177.524 3.43794C176.577 3.43794 175.694 3.60984 175.563 3.81993C175.431 4.03003 174.635 4.20193 173.795 4.20193C172.955 4.20193 172.268 4.37382 172.268 4.58392C172.268 4.79401 171.571 4.96591 170.718 4.96591C169.866 4.96591 169.168 5.13781 169.168 5.3479C169.168 5.558 168.568 5.7299 167.835 5.7299C167.101 5.7299 166.393 5.9018 166.261 6.11189C166.13 6.32199 165.508 6.49388 164.882 6.49388C164.255 6.49388 163.742 6.66578 163.742 6.87588C163.742 7.08597 163.132 7.25787 162.386 7.25787C161.64 7.25787 161.029 7.42977 161.029 7.63986C161.029 7.84996 160.605 8.02186 160.088 8.02186C159.281 8.02186 154.388 9.39035 151.922 10.3062C150.668 10.7713 148.873 11.5228 148.148 11.8867C147.778 12.0719 147.124 12.2238 146.695 12.2238C146.265 12.2238 145.915 12.3957 145.915 12.6058C145.915 12.8159 145.566 12.9878 145.14 12.9878C144.713 12.9878 144.364 13.1597 144.364 13.3698C144.364 13.5799 143.841 13.7518 143.202 13.7518C142.562 13.7518 142.039 13.9237 142.039 14.1337C142.039 14.3438 141.69 14.5157 141.264 14.5157C140.838 14.5157 140.489 14.6876 140.489 14.8977C140.489 15.1078 140.151 15.2797 139.737 15.2797C139.323 15.2797 138.877 15.4516 138.745 15.6617C138.613 15.8718 138.166 16.0437 137.753 16.0437C137.339 16.0437 137.001 16.2156 137.001 16.4257C137.001 16.6358 136.663 16.8077 136.249 16.8077C135.835 16.8077 135.389 16.9796 135.257 17.1897C135.125 17.3998 134.678 17.5717 134.265 17.5717C133.851 17.5717 133.512 17.7006 133.512 17.8582C133.511 18.0158 132.552 18.5744 131.381 19.0997C130.211 19.6249 129.252 20.1836 129.251 20.3411C129.251 20.4987 128.901 20.6276 128.475 20.6276C128.048 20.6276 127.7 20.7995 127.7 21.0096C127.7 21.2197 127.351 21.3916 126.924 21.3916C126.498 21.3916 126.149 21.5635 126.149 21.7736C126.149 21.9837 125.801 22.1556 125.374 22.1556C124.948 22.1556 124.599 22.3103 124.599 22.4984C124.599 22.6875 123.335 23.4611 121.789 24.2193C118.885 25.6442 118.545 25.8361 115.816 27.599C114.921 28.1768 114.041 28.6495 113.86 28.6495C113.679 28.6495 113.28 28.9933 112.972 29.4135C112.665 29.8337 112.103 30.1775 111.725 30.1775C111.345 30.1775 111.035 30.3207 111.035 30.4945C111.035 30.6693 110.555 31.0551 109.969 31.3521C109.383 31.6481 108.621 32.1934 108.276 32.5621C107.931 32.9316 107.403 33.2334 107.102 33.2334C106.802 33.2334 106.304 33.5772 105.996 33.9974C105.689 34.4176 105.241 34.7614 104.999 34.7614C104.758 34.7614 104.014 35.2771 103.345 35.9074C102.675 36.5376 101.977 37.0533 101.794 37.0533C101.611 37.0533 100.914 37.569 100.244 38.1993C99.5746 38.8296 98.94 39.3453 98.8335 39.3453C98.7259 39.3453 98.2453 39.6786 97.7638 40.0864C97.2823 40.4932 96.4694 41.1808 95.9578 41.6143C95.4452 42.0469 94.8833 42.4012 94.7079 42.4012C94.5335 42.4012 93.6441 43.1337 92.7333 44.0295C91.8216 44.9253 90.4652 46.0827 89.7191 46.6022C88.9731 47.1208 86.6565 49.2676 84.5714 51.3714C80.0128 55.9725 81.0098 54.9898 76.3417 59.483C74.2072 61.5381 72.0291 63.8215 71.503 64.5568C70.976 65.2922 69.8017 66.6292 68.8928 67.5278C67.984 68.4255 67.2409 69.3022 67.2409 69.4741C67.2409 69.6469 66.8814 70.2008 66.4425 70.706C66.0027 71.2102 65.305 72.0114 64.8923 72.4861C64.4786 72.9607 64.1404 73.4344 64.1404 73.5404C64.1404 73.6454 63.6172 74.2709 62.9778 74.9308C62.3383 75.5907 61.8151 76.2783 61.8151 76.4588C61.8151 76.6393 61.2919 77.3269 60.6524 77.9868C60.013 78.6467 59.4898 79.3801 59.4898 79.6179C59.4898 79.8557 59.141 80.2978 58.7147 80.6006C58.2884 80.9033 57.9396 81.3942 57.9396 81.6902C57.9396 81.9872 57.6334 82.5077 57.2584 82.8476C56.8844 83.1876 56.3312 83.9382 56.0308 84.516C55.7295 85.0938 55.3381 85.5665 55.1608 85.5665C54.9844 85.5665 54.8391 85.8721 54.8391 86.2464C54.8391 86.6198 54.4903 87.1737 54.064 87.4764C53.6377 87.7792 53.2889 88.1726 53.2889 88.3512C53.2889 88.5298 52.8093 89.3969 52.2231 90.2793C50.4345 92.9686 50.2398 93.3037 48.7942 96.1668C48.0249 97.69 47.2401 98.9362 47.0483 98.9362C46.8574 98.9362 46.7004 99.28 46.7004 99.7002C46.7004 100.12 46.526 100.464 46.3129 100.464C46.0997 100.464 45.9253 100.808 45.9253 101.228C45.9253 101.648 45.7509 101.992 45.5378 101.992C45.3246 101.992 45.1502 102.336 45.1502 102.756C45.1502 103.176 45.0194 103.521 44.8596 103.521C44.6997 103.522 44.1329 104.467 43.6 105.621C43.0671 106.775 42.5003 107.72 42.3404 107.721C42.1806 107.721 42.0498 107.975 42.0498 108.284C42.0498 108.592 41.701 109.457 41.2747 110.205C40.8484 110.953 40.4996 111.904 40.4996 112.317C40.4996 112.731 40.3252 113.07 40.112 113.07C39.8988 113.07 39.7244 113.414 39.7244 113.834C39.7244 114.254 39.55 114.598 39.3369 114.598C39.1237 114.598 38.9493 114.942 38.9493 115.362C38.9493 115.782 38.7749 116.126 38.5618 116.126C38.3486 116.126 38.1742 116.642 38.1742 117.272C38.1742 117.902 37.9998 118.418 37.7867 118.418C37.5735 118.418 37.3991 118.762 37.3991 119.182C37.3991 119.602 37.2247 119.946 37.0116 119.946C36.7984 119.946 36.624 120.292 36.624 120.715C36.624 121.138 36.4699 121.782 36.282 122.147C34.85 124.92 32.3609 132.392 32.3609 133.915C32.3609 134.425 32.1865 134.844 31.9733 134.844C31.7602 134.844 31.5858 135.445 31.5858 136.181C31.5858 136.916 31.4114 137.518 31.1982 137.518C30.9851 137.518 30.8107 138.033 30.8107 138.664C30.8107 139.294 30.6363 139.81 30.4231 139.81C30.21 139.81 30.0356 140.497 30.0356 141.337C30.0356 142.178 29.8612 142.865 29.648 142.865C29.4348 142.865 29.2604 143.553 29.2604 144.393C29.2604 145.234 29.086 145.921 28.8729 145.921C28.6597 145.921 28.4853 146.609 28.4853 147.449C28.4853 148.29 28.3109 148.977 28.0978 148.977C27.8846 148.977 27.7102 149.837 27.7102 150.887C27.7102 151.938 27.5358 152.797 27.3227 152.797C27.1095 152.797 26.9351 153.646 26.9351 154.684C26.9351 155.722 26.7607 156.678 26.5476 156.808C26.3344 156.938 26.16 157.969 26.16 159.1C26.16 160.231 25.9856 161.262 25.7724 161.392C25.5593 161.522 25.3849 162.807 25.3849 164.248C25.3849 166.004 25.225 166.92 24.9004 167.027C24.1912 167.26 24.1912 214.734 24.9004 214.967C25.225 215.074 25.3849 215.989 25.3849 217.746C25.3849 219.186 25.5593 220.471 25.7724 220.601C25.9856 220.731 26.16 221.762 26.16 222.893C26.16 224.024 26.3344 225.055 26.5476 225.185C26.7607 225.315 26.9351 226.271 26.9351 227.309C26.9351 228.347 27.1095 229.196 27.3227 229.196C27.5358 229.196 27.7102 229.959 27.7102 230.892C27.7102 231.825 27.8846 232.695 28.0978 232.825C28.3109 232.955 28.4853 233.739 28.4853 234.567C28.4853 235.395 28.6597 236.072 28.8729 236.072C29.086 236.072 29.2604 236.759 29.2604 237.6C29.2604 238.44 29.4348 239.128 29.648 239.128C29.8612 239.128 30.0356 239.815 30.0356 240.656C30.0356 241.496 30.21 242.184 30.4231 242.184C30.6363 242.184 30.8107 242.699 30.8107 243.33C30.8107 243.96 30.9851 244.476 31.1982 244.476C31.4114 244.476 31.5858 245.077 31.5858 245.813C31.5858 246.548 31.7602 247.15 31.9733 247.15C32.1865 247.15 32.3609 247.568 32.3609 248.078C32.3609 248.91 33.8423 254.003 34.7298 256.222C35.5107 258.174 35.9584 259.219 36.282 259.846C36.4699 260.211 36.624 260.856 36.624 261.279C36.624 261.702 36.7984 262.047 37.0116 262.047C37.2247 262.047 37.3991 262.391 37.3991 262.811C37.3991 263.232 37.5735 263.575 37.7867 263.575C37.9998 263.575 38.1742 263.995 38.1742 264.507C38.1742 265.02 38.3486 265.546 38.5618 265.676C38.7749 265.806 38.9493 266.246 38.9493 266.654C38.9493 267.062 39.1237 267.395 39.3369 267.395C39.55 267.395 39.7244 267.739 39.7244 268.159C39.7244 268.579 39.8988 268.923 40.112 268.923C40.3252 268.923 40.4996 269.262 40.4996 269.676C40.4996 270.089 40.8484 271.04 41.2747 271.788C41.701 272.536 42.0498 273.401 42.0498 273.71C42.0498 274.018 42.1806 274.272 42.3404 274.272C42.5003 274.273 43.0671 275.218 43.6 276.372C44.1329 277.526 44.6997 278.471 44.8596 278.472C45.0194 278.472 45.1502 278.817 45.1502 279.237C45.1502 279.657 45.3246 280.001 45.5378 280.001C45.7509 280.001 45.9253 280.345 45.9253 280.765C45.9253 281.185 46.0561 281.53 46.216 281.532C46.3759 281.534 46.7063 281.921 46.9494 282.391C49.9734 288.241 50.3144 288.844 52.2231 291.714C52.8093 292.596 53.2889 293.463 53.2889 293.642C53.2889 293.821 53.6377 294.214 54.064 294.517C54.4903 294.819 54.8391 295.373 54.8391 295.747C54.8391 296.121 54.9844 296.427 55.1608 296.427C55.3381 296.427 55.7295 296.899 56.0308 297.477C56.3312 298.055 56.8844 298.806 57.2584 299.146C57.6334 299.486 57.9396 300.006 57.9396 300.303C57.9396 300.599 58.2884 301.09 58.7147 301.393C59.141 301.695 59.4898 302.138 59.4898 302.375C59.4898 302.613 60.013 303.347 60.6524 304.006C61.2919 304.666 61.8151 305.354 61.8151 305.534C61.8151 305.715 62.3383 306.402 62.9778 307.062C63.6172 307.722 64.1404 308.348 64.1404 308.453C64.1404 308.559 64.4786 309.032 64.8923 309.507C65.305 309.982 66.0027 310.783 66.4425 311.287C66.8814 311.792 67.2409 312.346 67.2409 312.519C67.2409 312.691 67.984 313.568 68.8928 314.465C69.8017 315.364 70.976 316.701 71.503 317.436C72.0291 318.172 74.2072 320.455 76.3417 322.51C81.0098 327.003 80.0128 326.021 84.5714 330.622C86.6565 332.726 88.9731 334.872 89.7191 335.391C90.4652 335.91 91.8216 337.068 92.7333 337.964C93.6441 338.859 94.5335 339.592 94.7079 339.592C94.8833 339.592 95.4452 339.946 95.9578 340.379C96.4694 340.812 97.2823 341.5 97.7638 341.907C98.2453 342.315 98.7259 342.648 98.8335 342.648C98.94 342.648 99.5746 343.164 100.244 343.794C100.914 344.424 101.611 344.94 101.794 344.94C101.977 344.94 102.675 345.456 103.345 346.086C104.014 346.716 104.758 347.232 104.999 347.232C105.241 347.232 105.689 347.576 105.996 347.996C106.304 348.416 106.802 348.76 107.102 348.76C107.403 348.76 107.931 349.062 108.276 349.431C108.621 349.8 109.383 350.345 109.969 350.641C110.555 350.938 111.035 351.324 111.035 351.499C111.035 351.672 111.345 351.816 111.725 351.816C112.103 351.816 112.665 352.16 112.972 352.58C113.28 353 113.679 353.344 113.86 353.344C114.041 353.344 114.921 353.816 115.816 354.394C118.459 356.102 118.888 356.351 120.893 357.354C121.945 357.879 122.997 358.31 123.23 358.31C123.463 358.31 123.904 358.653 124.212 359.074C124.519 359.494 125.081 359.838 125.459 359.838C125.839 359.838 126.149 360.01 126.149 360.22C126.149 360.43 126.498 360.602 126.924 360.602C127.351 360.602 127.7 360.773 127.7 360.984C127.7 361.194 128.048 361.366 128.475 361.366C128.901 361.366 129.25 361.537 129.25 361.748C129.25 361.958 129.584 362.13 129.993 362.13C130.401 362.13 130.793 362.259 130.865 362.418C130.936 362.576 132.215 363.282 133.707 363.986C135.199 364.69 136.723 365.419 137.093 365.608C137.463 365.796 138.03 365.949 138.352 365.949C138.675 365.949 138.939 366.121 138.939 366.331C138.939 366.542 139.287 366.713 139.714 366.713C140.14 366.713 140.489 366.885 140.489 367.095C140.489 367.306 140.838 367.477 141.264 367.477C141.69 367.477 142.039 367.649 142.039 367.859C142.039 368.07 142.562 368.241 143.202 368.241C143.841 368.241 144.364 368.413 144.364 368.623C144.364 368.834 144.713 369.005 145.14 369.005C145.566 369.005 145.915 369.177 145.915 369.387C145.915 369.598 146.265 369.769 146.695 369.769C147.124 369.769 147.778 369.921 148.148 370.107C148.785 370.425 149.844 370.867 151.825 371.636C154.077 372.511 159.244 373.971 160.088 373.971C160.605 373.971 161.029 374.143 161.029 374.353C161.029 374.563 161.64 374.735 162.386 374.735C163.132 374.735 163.742 374.907 163.742 375.117C163.742 375.327 164.255 375.499 164.882 375.499C165.508 375.499 166.13 375.671 166.261 375.881C166.393 376.091 167.101 376.263 167.835 376.263C168.568 376.263 169.168 376.435 169.168 376.645C169.168 376.855 169.866 377.027 170.718 377.027C171.571 377.027 172.268 377.199 172.268 377.409C172.268 377.619 172.955 377.791 173.795 377.791C174.635 377.791 175.431 377.963 175.563 378.173C175.694 378.383 176.577 378.555 177.524 378.555C178.47 378.555 179.244 378.727 179.244 378.937C179.244 379.147 180.106 379.319 181.159 379.319C182.212 379.319 183.182 379.491 183.314 379.701C183.446 379.911 184.492 380.083 185.639 380.083C186.786 380.083 187.833 380.255 187.964 380.465C188.096 380.675 189.4 380.847 190.861 380.847C192.643 380.847 193.572 381.005 193.681 381.325C193.917 382.024 242.083 382.024 242.319 381.325C242.428 381.005 243.357 380.847 245.139 380.847C246.6 380.847 247.904 380.675 248.036 380.465C248.167 380.255 249.312 380.083 250.578 380.083C251.854 380.083 252.88 379.913 252.88 379.701C252.88 379.491 253.752 379.319 254.818 379.319C255.884 379.319 256.756 379.147 256.756 378.937C256.756 378.727 257.628 378.555 258.693 378.555C259.759 378.555 260.631 378.383 260.631 378.173C260.631 377.963 261.329 377.791 262.181 377.791C263.034 377.791 263.732 377.619 263.732 377.409C263.732 377.199 264.429 377.027 265.282 377.027C266.134 377.027 266.832 376.855 266.832 376.645C266.832 376.435 267.53 376.263 268.382 376.263C269.235 376.263 269.932 376.091 269.932 375.881C269.932 375.671 270.456 375.499 271.095 375.499C271.735 375.499 272.258 375.327 272.258 375.117C272.258 374.907 272.868 374.735 273.614 374.735C274.36 374.735 274.971 374.563 274.971 374.353C274.971 374.143 275.386 373.971 275.895 373.971C276.887 373.971 280.545 372.978 281.651 372.408C282.021 372.217 282.665 372.061 283.081 372.061C283.498 372.061 283.946 371.889 284.078 371.679C284.21 371.469 284.733 371.297 285.241 371.297C285.749 371.297 286.272 371.125 286.404 370.915C286.535 370.705 286.982 370.533 287.396 370.533C287.809 370.533 288.148 370.362 288.148 370.151C288.148 369.941 288.584 369.769 289.116 369.769C289.649 369.769 290.085 369.598 290.085 369.387C290.085 369.177 290.423 369.005 290.837 369.005C291.251 369.005 291.698 368.834 291.829 368.623C291.961 368.413 292.495 368.241 293.015 368.241C293.536 368.241 293.961 368.07 293.961 367.859C293.961 367.649 294.31 367.477 294.736 367.477C295.162 367.477 295.511 367.306 295.511 367.095C295.511 366.885 295.775 366.713 296.097 366.713C296.667 366.713 297.079 366.554 298.897 365.627C299.374 365.384 300.028 365.185 300.351 365.185C300.673 365.185 300.937 365.014 300.937 364.804C300.937 364.593 301.286 364.422 301.712 364.422C302.138 364.422 302.487 364.25 302.487 364.04C302.487 363.829 302.836 363.658 303.262 363.658C303.689 363.658 304.037 363.518 304.037 363.347C304.037 363.176 304.648 362.8 305.394 362.512C306.14 362.223 306.75 361.847 306.75 361.676C306.75 361.505 307.099 361.366 307.525 361.366C307.952 361.366 308.3 361.194 308.3 360.984C308.3 360.773 308.649 360.602 309.076 360.602C309.502 360.602 309.851 360.43 309.851 360.22C309.851 360.01 310.199 359.838 310.626 359.838C311.052 359.838 311.401 359.686 311.401 359.5C311.401 359.316 312.796 358.511 314.501 357.713C316.207 356.915 317.602 356.163 317.602 356.042C317.602 355.921 318.169 355.575 318.861 355.273C319.554 354.97 320.459 354.413 320.872 354.033C321.285 353.654 321.772 353.344 321.954 353.344C322.136 353.344 322.659 353 323.117 352.58C323.574 352.16 324.178 351.816 324.457 351.816C324.737 351.816 324.965 351.655 324.965 351.46C324.965 351.264 325.32 350.993 325.753 350.857C326.186 350.721 326.963 350.194 327.48 349.685C327.996 349.176 328.649 348.76 328.932 348.76C329.214 348.76 329.696 348.416 330.004 347.996C330.311 347.576 330.803 347.232 331.096 347.232C331.39 347.232 332.119 346.716 332.716 346.086C333.314 345.456 334.012 344.94 334.267 344.94C334.521 344.94 335.219 344.424 335.817 343.794C336.415 343.164 337.014 342.648 337.151 342.648C337.425 342.648 338.081 342.141 339.5 340.833C340.012 340.361 340.597 339.974 340.798 339.974C340.999 339.974 342.055 339.114 343.143 338.064C344.232 337.013 345.288 336.154 345.489 336.154C345.691 336.154 347.914 334.101 350.429 331.59C352.943 329.08 355.201 326.828 355.446 326.585C355.69 326.343 357.913 324.182 360.387 321.786C362.861 319.389 364.884 317.269 364.884 317.075C364.884 316.882 365.756 315.841 366.821 314.762C367.887 313.684 368.759 312.66 368.759 312.486C368.759 312.312 369.239 311.639 369.825 310.991C371.555 309.078 371.86 308.696 371.86 308.438C371.86 308.303 372.383 307.712 373.022 307.123C373.662 306.533 374.185 305.846 374.185 305.595C374.185 305.343 374.708 304.656 375.348 304.067C375.987 303.477 376.51 302.759 376.51 302.47C376.51 302.18 376.859 301.695 377.285 301.393C377.712 301.09 378.06 300.614 378.06 300.336C378.06 300.058 378.483 299.414 378.999 298.905C379.516 298.396 380.051 297.63 380.188 297.203C380.326 296.776 380.601 296.427 380.799 296.427C380.998 296.427 381.161 296.201 381.161 295.925C381.161 295.65 381.51 295.055 381.936 294.605C382.362 294.154 382.711 293.638 382.711 293.459C382.711 293.279 383.016 292.8 383.389 292.392C383.762 291.985 384.329 291.136 384.648 290.506C384.968 289.876 385.34 289.274 385.474 289.169C385.609 289.064 386.369 287.646 387.162 286.017C387.955 284.389 388.76 283.057 388.952 283.057C389.143 283.057 389.3 282.713 389.3 282.293C389.3 281.873 389.474 281.529 389.687 281.529C389.9 281.529 390.075 281.185 390.075 280.765C390.075 280.345 390.249 280.001 390.462 280.001C390.675 280.001 390.85 279.657 390.85 279.237C390.85 278.817 390.991 278.473 391.165 278.473C391.338 278.473 391.72 277.871 392.012 277.136C392.305 276.401 392.687 275.799 392.86 275.799C393.034 275.799 393.175 275.455 393.175 275.035C393.175 274.615 393.35 274.271 393.563 274.271C393.776 274.271 393.95 273.927 393.95 273.507C393.95 273.087 394.125 272.743 394.338 272.743C394.551 272.743 394.725 272.41 394.725 272.002C394.725 271.594 394.9 271.154 395.113 271.024C395.326 270.894 395.5 270.368 395.5 269.855C395.5 269.342 395.675 268.923 395.888 268.923C396.101 268.923 396.276 268.579 396.276 268.159C396.276 267.739 396.45 267.395 396.663 267.395C396.876 267.395 397.051 267.051 397.051 266.631C397.051 266.211 397.225 265.867 397.438 265.867C397.651 265.867 397.826 265.448 397.826 264.935C397.826 264.422 398 263.896 398.213 263.766C398.426 263.636 398.601 263.196 398.601 262.788C398.601 262.381 398.775 262.047 398.988 262.047C399.202 262.047 399.376 261.736 399.376 261.355C399.376 260.974 399.725 259.951 400.151 259.081C400.577 258.212 400.926 257.245 400.926 256.931C400.926 256.618 401.101 256.256 401.314 256.126C401.527 255.997 401.701 255.554 401.701 255.144C401.701 254.733 401.859 254.099 402.053 253.734C402.631 252.644 403.639 249.039 403.639 248.061C403.639 247.559 403.814 247.15 404.027 247.15C404.24 247.15 404.414 246.548 404.414 245.813C404.414 245.077 404.589 244.476 404.802 244.476C405.015 244.476 405.189 243.96 405.189 243.33C405.189 242.699 405.364 242.184 405.577 242.184C405.79 242.184 405.964 241.496 405.964 240.656C405.964 239.815 406.139 239.128 406.352 239.128C406.565 239.128 406.74 238.44 406.74 237.6C406.74 236.759 406.914 236.072 407.127 236.072C407.34 236.072 407.515 235.384 407.515 234.544C407.515 233.703 407.689 233.016 407.902 233.016C408.115 233.016 408.29 232.156 408.29 231.106C408.29 230.055 408.464 229.196 408.677 229.196C408.89 229.196 409.065 228.347 409.065 227.309C409.065 226.271 409.239 225.315 409.452 225.185C409.666 225.055 409.84 224.024 409.84 222.893C409.84 221.762 410.014 220.731 410.228 220.601C410.441 220.471 410.615 219.186 410.615 217.746C410.615 215.989 410.775 215.074 411.1 214.967C411.48 214.842 411.584 209.706 411.584 190.997C411.584 172.288 411.48 167.152 411.1 167.027C410.775 166.92 410.615 166.004 410.615 164.248C410.615 162.807 410.441 161.522 410.228 161.392C410.014 161.262 409.84 160.134 409.84 158.886C409.84 157.629 409.668 156.617 409.452 156.617C409.239 156.617 409.065 155.758 409.065 154.707C409.065 153.657 408.89 152.797 408.677 152.797C408.464 152.797 408.29 151.938 408.29 150.887C408.29 149.837 408.115 148.977 407.902 148.977C407.689 148.977 407.515 148.29 407.515 147.449C407.515 146.609 407.34 145.921 407.127 145.921C406.914 145.921 406.74 145.234 406.74 144.393C406.74 143.553 406.565 142.865 406.352 142.865C406.139 142.865 405.964 142.178 405.964 141.337C405.964 140.497 405.79 139.81 405.577 139.81C405.364 139.81 405.189 139.294 405.189 138.664C405.189 138.033 405.015 137.518 404.802 137.518C404.589 137.518 404.414 136.916 404.414 136.181C404.414 135.445 404.24 134.844 404.027 134.844C403.814 134.844 403.639 134.434 403.639 133.933C403.639 132.955 402.631 129.35 402.053 128.259C401.859 127.894 401.701 127.26 401.701 126.849C401.701 126.439 401.527 125.997 401.314 125.867C401.101 125.737 400.926 125.375 400.926 125.062C400.926 124.748 400.577 123.781 400.151 122.912C399.725 122.042 399.376 121.019 399.376 120.638C399.376 120.257 399.202 119.946 398.988 119.946C398.775 119.946 398.601 119.613 398.601 119.205C398.601 118.797 398.426 118.357 398.213 118.227C398 118.097 397.826 117.571 397.826 117.058C397.826 116.545 397.651 116.126 397.438 116.126C397.225 116.126 397.051 115.782 397.051 115.362C397.051 114.942 396.876 114.598 396.663 114.598C396.45 114.598 396.276 114.338 396.276 114.02C396.276 113.702 396.101 113.101 395.888 112.683C395.675 112.266 395.326 111.582 395.113 111.165C394.9 110.747 394.725 110.146 394.725 109.828C394.725 109.51 394.551 109.25 394.338 109.25C394.125 109.25 393.95 108.906 393.95 108.486C393.95 108.066 393.776 107.722 393.563 107.722C393.35 107.722 393.175 107.378 393.175 106.958C393.175 106.538 393.034 106.194 392.86 106.194C392.687 106.194 392.305 105.592 392.012 104.857C391.72 104.122 391.338 103.52 391.165 103.52C390.991 103.52 390.85 103.176 390.85 102.756C390.85 102.336 390.675 101.992 390.462 101.992C390.249 101.992 390.075 101.648 390.075 101.228C390.075 100.808 389.9 100.464 389.687 100.464C389.474 100.464 389.3 100.12 389.3 99.7002C389.3 99.28 389.125 98.9362 388.912 98.9362C388.699 98.9362 388.524 98.6784 388.524 98.3632C388.524 98.0481 388.394 97.7903 388.234 97.7893C388.074 97.7893 387.438 96.672 386.822 95.3064C386.205 93.9417 385.594 92.8243 385.463 92.8243C385.333 92.8243 384.974 92.2657 384.668 91.5829C384.361 90.9001 383.796 90.0081 383.411 89.6013C383.026 89.1935 382.711 88.7141 382.711 88.5346C382.711 88.355 382.362 87.8393 381.936 87.3886C381.51 86.9378 381.161 86.3429 381.161 86.0678C381.161 85.7919 380.998 85.5665 380.799 85.5665C380.601 85.5665 380.326 85.217 380.188 84.7901C380.051 84.3632 379.516 83.5973 378.999 83.0883C378.483 82.5793 378.06 81.9356 378.06 81.6568C378.06 81.3789 377.712 80.9033 377.285 80.6006C376.859 80.2978 376.51 79.828 376.51 79.5577C376.51 79.2875 375.987 78.5263 375.348 77.8665C374.708 77.2066 374.185 76.5037 374.185 76.3041C374.185 76.1045 373.662 75.4599 373.022 74.8707C372.383 74.2814 371.86 73.6903 371.86 73.5557C371.86 73.2854 371.345 72.6389 370.019 71.2408C369.539 70.7356 369.147 70.1645 369.147 69.9735C369.147 69.7816 368.187 68.6413 367.015 67.439C365.843 66.2357 364.884 65.0974 364.884 64.9083C364.884 64.7192 362.861 62.6039 360.387 60.2069C357.913 57.8108 355.69 55.6507 355.446 55.4081C355.201 55.1655 352.943 52.9127 350.429 50.403C347.914 47.8924 345.691 45.8392 345.489 45.8392C345.288 45.8392 344.232 44.9797 343.143 43.9292C342.055 42.8787 340.999 42.0193 340.798 42.0193C340.597 42.0193 340.012 41.6325 339.5 41.1598C338.081 39.8524 337.425 39.3453 337.151 39.3453C337.014 39.3453 336.415 38.8296 335.817 38.1993C335.219 37.569 334.565 37.0533 334.363 37.0533C334.16 37.0533 333.447 36.5376 332.777 35.9074C332.108 35.2771 331.336 34.7614 331.062 34.7614C330.787 34.7614 330.311 34.4176 330.004 33.9974C329.696 33.5772 329.214 33.2334 328.932 33.2334C328.649 33.2334 327.996 32.817 327.48 32.308C326.963 31.799 326.186 31.2719 325.753 31.1363C325.32 31.0007 324.965 30.7294 324.965 30.5337C324.965 30.3379 324.737 30.1775 324.457 30.1775C324.178 30.1775 323.574 29.8337 323.117 29.4135C322.659 28.9933 322.136 28.6495 321.954 28.6495C321.772 28.6495 321.285 28.3391 320.872 27.96C320.459 27.5799 319.554 27.0232 318.861 26.7204C318.169 26.4186 317.602 26.072 317.602 25.9507C317.602 25.8304 316.207 25.0779 314.501 24.2804C312.796 23.4821 311.401 22.677 311.401 22.4927C311.401 22.3074 311.052 22.1556 310.626 22.1556C310.199 22.1556 309.851 21.9837 309.851 21.7736C309.851 21.5635 309.502 21.3916 309.076 21.3916C308.649 21.3916 308.3 21.2197 308.3 21.0096C308.3 20.7995 307.952 20.6276 307.525 20.6276C307.099 20.6276 306.75 20.4882 306.75 20.3173C306.75 20.1463 306.14 19.7701 305.394 19.4817C304.648 19.1932 304.037 18.817 304.037 18.646C304.037 18.4751 303.689 18.3357 303.262 18.3357C302.836 18.3357 302.487 18.1638 302.487 17.9537C302.487 17.7436 302.138 17.5717 301.712 17.5717C301.286 17.5717 300.937 17.3998 300.937 17.1897C300.937 16.9796 300.673 16.8077 300.351 16.8077C300.028 16.8077 299.374 16.6091 298.897 16.3665C297.079 15.4392 296.667 15.2797 296.097 15.2797C295.775 15.2797 295.511 15.1078 295.511 14.8977C295.511 14.6876 295.162 14.5157 294.736 14.5157C294.31 14.5157 293.961 14.3438 293.961 14.1337C293.961 13.9237 293.536 13.7518 293.015 13.7518C292.495 13.7518 291.961 13.5799 291.829 13.3698C291.698 13.1597 291.251 12.9878 290.837 12.9878C290.423 12.9878 290.085 12.8159 290.085 12.6058C290.085 12.3957 289.649 12.2238 289.116 12.2238C288.584 12.2238 288.148 12.0519 288.148 11.8418C288.148 11.6317 287.809 11.4598 287.396 11.4598C286.982 11.4598 286.535 11.2879 286.404 11.0778C286.272 10.8677 285.749 10.6958 285.241 10.6958C284.733 10.6958 284.21 10.5239 284.078 10.3138C283.946 10.1037 283.423 9.93182 282.916 9.93182C282.408 9.93182 281.885 9.75993 281.753 9.54983C281.621 9.33973 281.098 9.16784 280.59 9.16784C280.083 9.16784 279.567 9.00835 279.444 8.81258C279.322 8.61681 278.265 8.33987 277.096 8.19566C275.927 8.05146 274.971 7.78216 274.971 7.59593C274.971 7.40971 274.447 7.25787 273.808 7.25787C273.169 7.25787 272.645 7.08597 272.645 6.87588C272.645 6.66578 272.035 6.49388 271.289 6.49388C270.543 6.49388 269.932 6.32199 269.932 6.11189C269.932 5.9018 269.235 5.7299 268.382 5.7299C267.53 5.7299 266.832 5.558 266.832 5.3479C266.832 5.13781 266.134 4.96591 265.282 4.96591C264.429 4.96591 263.732 4.79401 263.732 4.58392C263.732 4.37382 263.034 4.20193 262.181 4.20193C261.329 4.20193 260.631 4.03003 260.631 3.81993C260.631 3.60984 259.759 3.43794 258.693 3.43794C257.628 3.43794 256.756 3.26604 256.756 3.05595C256.756 2.84585 255.884 2.67395 254.818 2.67395C253.752 2.67395 252.88 2.50206 252.88 2.29196C252.88 2.08186 251.931 1.90997 250.772 1.90997C249.612 1.90997 248.555 1.73807 248.423 1.52797C248.291 1.31788 246.9 1.14598 245.332 1.14598C243.419 1.14598 242.429 0.991272 242.322 0.676128C242.165 0.212006 205.686 -0.120328 196.975 0.26262ZM231.952 22.9091C239.435 23.4954 247.09 24.5841 253.364 25.9555C257.846 26.9343 258.587 27.1005 260.05 27.4577C261.522 27.8158 262.996 28.2131 266.057 29.0745C266.803 29.2846 267.937 29.5978 268.576 29.7706C276.399 31.8869 293.774 39.2431 301.712 43.8003C302.671 44.3504 303.979 45.0991 304.619 45.4639C322.943 55.9047 341 71.7622 354.4 89.1792C358.179 94.0897 365.659 105.028 365.659 105.641C365.659 105.742 366.316 106.897 367.12 108.206C371.161 114.793 377.142 127.972 379.988 136.563C380.475 138.033 381.011 139.58 381.178 140.001C381.347 140.421 381.597 141.194 381.736 141.719C381.875 142.245 382.141 143.19 382.327 143.82C382.994 146.07 383.543 148.045 383.92 149.55C384.283 150.992 384.451 151.723 385.444 156.14C385.669 157.138 386.001 158.814 386.184 159.864C386.366 160.915 386.718 162.891 386.966 164.257C390.782 185.241 389.212 214.305 383.125 235.403C382.897 236.191 382.553 237.394 382.359 238.077C379.211 249.185 372.313 265.354 367.124 273.787C366.317 275.096 365.659 276.251 365.659 276.352C365.659 276.58 361.972 282.255 359.316 286.113C355.862 291.132 351.325 296.927 347.968 300.607L346.748 301.944L268.519 224.955C225.493 182.611 184.273 141.946 176.919 134.588C169.565 127.23 163.374 121.183 163.162 121.15C162.71 121.082 105.221 64.491 105.221 64.1147C105.221 63.748 110.826 59.0581 113.36 57.3038C114.106 56.7871 115.065 56.0451 115.492 55.6545C116.98 54.2917 128.083 47.0081 131.381 45.2309C131.808 45.0007 132.854 44.4144 133.707 43.9273C135.086 43.1385 136.417 42.4347 142.233 39.4121C148.39 36.213 160.173 31.6844 169.168 29.0601C170.767 28.5941 172.61 28.0526 173.264 27.8578C173.919 27.663 174.824 27.5035 175.277 27.5035C175.728 27.5035 176.194 27.3498 176.313 27.1616C176.43 26.9735 177.182 26.7271 177.982 26.6135C178.783 26.4998 180.31 26.2162 181.376 25.9832C188.062 24.5192 194.434 23.569 201.892 22.9225C204.437 22.7019 206.617 22.4192 206.737 22.2941C207.023 21.9933 226.252 22.4622 231.952 22.9091ZM110.162 100.177C121.512 111.363 130.827 120.689 130.86 120.9C130.893 121.11 140.789 130.909 152.851 142.674C164.913 154.44 209.829 198.68 252.666 240.987L330.55 317.908L329.2 319.105C323.133 324.482 312.355 332.121 304.619 336.529C303.979 336.894 302.671 337.642 301.712 338.193C293.695 342.791 276.252 350.166 268.479 352.244C267.007 352.636 264.869 353.229 262.956 353.773C259.932 354.633 253.423 356.091 249.392 356.811C226.625 360.88 202.528 360.604 181.473 356.035C180.46 355.815 178.891 355.477 177.985 355.282C176.463 354.956 175.599 354.729 171.881 353.683C171.135 353.473 170.001 353.16 169.362 352.988C164.631 351.715 155.965 348.637 149.79 346.032C147.371 345.012 136.007 339.397 133.804 338.134C133.004 337.675 131.783 336.982 131.091 336.594C127.51 334.588 118.265 328.53 118.076 328.066C118.004 327.892 117.742 327.749 117.494 327.748C117.245 327.747 116.519 327.269 115.879 326.685C115.24 326.102 114.106 325.203 113.36 324.688C111.58 323.458 111.256 323.197 106.424 319.121C98.4943 312.431 86.5915 300.072 82.3604 294.135C81.8362 293.399 81.0795 292.454 80.6784 292.034C79.4256 290.722 72.5388 280.532 70.288 276.659C69.8908 275.976 69.1903 274.772 68.7301 273.985C67.9317 272.617 65.5356 268.171 63.8391 264.912C63.4022 264.072 62.6803 262.568 62.2356 261.57C61.7909 260.572 61.0943 259.025 60.6873 258.132C58.8658 254.141 55.311 244.65 54.283 241.038C54.1338 240.512 53.8489 239.524 53.6503 238.841C53.4517 238.158 53.1145 236.998 52.9013 236.263C52.6882 235.527 52.3258 234.281 52.0972 233.493C51.8675 232.705 51.5187 231.33 51.322 230.437C51.1244 229.544 50.7814 227.997 50.5586 226.999C45.5262 204.472 45.5349 177.299 50.5838 154.898C50.8202 153.848 51.1079 152.343 51.2232 151.553C51.3385 150.764 51.5885 150.023 51.7794 149.907C51.9702 149.791 52.1262 149.332 52.1262 148.887C52.1262 148.441 52.288 147.549 52.4857 146.903C52.6833 146.259 53.2327 144.441 53.7055 142.865C55.5687 136.659 58.5664 128.51 60.73 123.766C61.1611 122.82 61.9353 121.101 62.4497 119.946C62.9652 118.79 63.7548 117.157 64.2054 116.317C64.6569 115.477 65.6703 113.586 66.458 112.115C67.2457 110.644 68.295 108.753 68.7892 107.913C69.2833 107.073 69.8782 106.041 70.1117 105.621C71.9148 102.37 79.3045 91.4262 80.6871 89.9594C81.0834 89.5392 81.8362 88.5938 82.3604 87.8584C82.8846 87.1231 83.6035 86.1777 83.9581 85.7575C87.6302 81.4047 89.0341 79.8366 89.2579 79.8366C89.4033 79.8366 98.8102 88.9891 110.162 100.177ZM0" fill="#E3383C"/>
<path fill-rule="evenodd" clip-rule="evenodd" d="M339.107 198.445C339.107 241.095 339.153 258.486 339.208 237.092C339.263 215.698 339.263 180.803 339.208 159.547C339.153 138.292 339.107 155.796 339.107 198.445ZM209.861 139.819C205.222 140.795 204.001 141.111 200.882 142.146C197.877 143.142 191.189 146.259 190.356 147.052C190.041 147.352 194.565 151.859 239.951 196.457L262.419 218.534L262.978 217.467C263.285 216.88 263.634 216.313 263.754 216.208C263.873 216.103 264.507 214.9 265.163 213.534C271.906 199.498 271.904 182.462 265.16 168.459C264.502 167.093 263.825 165.919 263.654 165.849C263.484 165.778 263.344 165.556 263.344 165.354C263.344 162.686 253.576 152.382 246.873 147.979C236.764 141.339 220.101 137.666 209.861 139.819ZM172.33 165.499C166.88 174.939 164.076 189.939 166.078 198.945C166.298 199.93 166.664 201.597 166.892 202.647C170.071 217.267 181.069 230.856 195.031 237.413C200.636 240.045 203.731 240.987 210.807 242.213C219.66 243.748 240.015 239.943 243.579 236.089C243.685 235.973 244.261 235.632 244.858 235.328L245.943 234.777L231.874 220.859C194.042 183.431 173.807 163.493 173.655 163.493C173.563 163.493 172.967 164.396 172.33 165.499ZM0" fill="#64C3F3"/>
</svg>
